<svg version="1" xmlns="http://www.w3.org/2000/svg" width="682.667" height="682.667" viewBox="0 0 512.000000 512.000000"><path d="M6 160v154h59v-78.5l23.6-26c13-14.3 23.9-26.3 24.3-26.7.4-.5 22.4 28.9 49 65.2l48.4 66h34.8c19.2 0 34.9-.2 34.9-.4 0-.3-27.9-40-62.1-88.2-34.1-48.3-62.1-88.1-62.2-88.5-.1-.4 25.2-28.7 56.3-62.9 31.1-34.2 57.5-63.5 58.8-65.1l2.3-2.9h-34.3l-34.3.1L135 83l-69.5 76.9-.3-77L65 6H6v154z"/><path d="M245 225.2v27.3l21 29.5c28.3 39.9 28.3 39-2.2 39H245v185h59v-91l40.6-.2 40.5-.3 26.7 45.7 26.7 45.7 33.3.1c18.2 0 33.2-.2 33.2-.5s-14.9-22.8-33.1-50.1c-18.2-27.3-33.2-50.1-33.5-50.7-.2-.7 3.4-3.2 8.1-5.6 33.7-17.5 52.5-51.5 52.5-95.1 0-49-23.8-83.3-67.9-98-22.3-7.5-19.7-7.3-107.3-7.7l-78.8-.4v27.3zm157.8 26.6c27.1 8.2 40.2 25.7 40.2 53.7 0 15-4.6 29-12.4 38.1-4.7 5.4-13.4 11.2-21.6 14.2-12.6 4.6-18.6 5.1-63.2 5.2H304V248.9l45.8.3c43.7.4 46 .5 53 2.6z"/></svg>